<svg width="165" height="119" viewBox="0 0 165 119" fill="none" xmlns="http://www.w3.org/2000/svg">
<g clip-path="url(#clip0_45_43)">
<path d="M129.682 10.7075C129.265 7.65674 128.742 4.38129 126.586 2.179C125.902 1.48022 125.083 0.926931 124.179 0.5525C123.274 0.178068 122.304 -0.00975413 121.325 0.000357059C120.346 0.0104683 119.379 0.218306 118.483 0.611334C117.586 1.00436 116.779 1.57444 116.11 2.28721C114.54 3.95815 113.847 6.30442 113.784 8.59383C113.72 10.8832 114.231 13.1472 114.798 15.3666C117.798 15.4264 120.775 14.8415 123.528 13.6518C124.203 13.3231 124.903 13.0489 125.621 12.8317C126.349 12.647 126.867 13.1118 127.544 13.436L127.915 12.7263C128.219 13.291 129.16 13.1236 129.502 12.5807C129.843 12.0378 129.768 11.3426 129.682 10.7075Z" fill="#2F2E41"/>
<path d="M117.153 23.5887L118.022 19.1612L111.51 16.3478L99.8675 10.7817C99.7864 10.2652 99.55 9.78548 99.1897 9.40596C98.8294 9.02644 98.3622 8.76503 97.8498 8.65629C97.3373 8.54755 96.8039 8.59661 96.3201 8.79699C95.8362 8.99737 95.4247 9.33962 95.14 9.77847C94.8553 10.2173 94.7108 10.7321 94.7256 11.2547C94.7404 11.7772 94.9139 12.283 95.223 12.7051C95.5321 13.1271 95.9624 13.4456 96.4569 13.6183C96.9513 13.7911 97.4867 13.8099 97.9921 13.6724L109.077 20.4993L117.153 23.5887Z" fill="#FFB8B8"/>
<path d="M112.782 22.8397L117.498 18.028L117.592 18.0563C117.65 18.074 123.511 19.8569 127.246 21.6686C127.669 21.8577 128.045 22.1365 128.348 22.4855C128.651 22.8345 128.874 23.2453 129.002 23.6893C129.188 24.3109 129.188 24.9731 129.002 25.5947C128.816 26.2163 128.452 26.7702 127.955 27.1884C127.444 27.6447 126.813 27.9446 126.135 28.0522C125.458 28.1598 124.764 28.0705 124.137 27.795L112.782 22.8397Z" fill="#529ADD"/>
<path d="M112.767 43.994L126.03 47.5308L128.709 35.0274L116.535 31.2672L112.767 43.994Z" fill="#FFB8B8"/>
<path d="M127.515 40.6003L114.559 37.6269L112.077 31.6261C111.876 30.7695 111.925 29.8731 112.219 29.0435C112.513 28.214 113.04 27.4863 113.736 26.947L118.47 22.9588L121.008 19.7238L120.732 18.0094C120.682 17.6667 120.754 17.3176 120.935 17.0224C121.116 16.7272 121.395 16.5043 121.724 16.3924L125.106 15.1821C125.48 15.0426 125.893 15.05 126.261 15.203C126.63 15.356 126.926 15.643 127.091 16.0059L127.449 16.8336C127.449 16.8336 128.979 17.5518 129.841 17.9558C130.285 18.1572 130.681 18.4497 131.003 18.8144C131.326 19.179 131.567 19.6076 131.713 20.0719C133.032 24.3282 132.676 28.9263 130.718 32.93L127.515 40.6003Z" fill="#529ADD"/>
<path d="M12.29 104.301L6.02548 102.628C5.10438 99.3561 4.99759 95.9091 5.71438 92.5865C8.44739 97.9778 15.7874 98.9943 20.1357 103.199C21.4818 104.52 22.5126 106.127 23.1518 107.9C23.7909 109.674 24.022 111.568 23.8279 113.442L25.3286 117.781C22.2826 117.661 19.2988 116.883 16.583 115.501C13.8672 114.119 11.4838 112.166 9.59712 109.777C8.55199 108.426 7.6815 106.949 7.0062 105.381C9.62751 104.998 12.29 104.301 12.29 104.301Z" fill="#F2F2F2"/>
<path d="M90.1188 119H28.7187C27.0732 118.998 25.4956 118.345 24.3321 117.184C23.1685 116.023 22.514 114.448 22.5122 112.806V31.6734C22.514 30.0313 23.1685 28.4569 24.3321 27.2958C25.4956 26.1346 27.0732 25.4815 28.7187 25.4796H90.1188C91.7644 25.4815 93.342 26.1346 94.5055 27.2958C95.6691 28.4569 96.3236 30.0313 96.3254 31.6734V112.806C96.3236 114.448 95.6691 116.023 94.5055 117.184C93.342 118.345 91.7644 118.998 90.1188 119Z" fill="#E6E6E6"/>
<path d="M66.6842 113.978H33.0347C31.5364 113.976 30.0999 113.382 29.0405 112.324C27.981 111.267 27.3851 109.834 27.3834 108.338V36.1412C27.3851 34.646 27.9811 33.2125 29.0405 32.1553C30.1 31.098 31.5364 30.5033 33.0347 30.5016H85.8028C87.3011 30.5033 88.7376 31.098 89.797 32.1553C90.8565 33.2125 91.4524 34.646 91.4541 36.1412V89.2593C91.4467 95.8128 88.8346 102.096 84.191 106.73C79.5473 111.364 73.2513 113.971 66.6842 113.978Z" fill="white"/>
<path d="M80.5389 44.3622H38.2987C38.1178 44.3624 37.9386 44.327 37.7714 44.2582C37.6041 44.1893 37.4522 44.0882 37.3241 43.9607C37.196 43.8332 37.0943 43.6818 37.0249 43.5151C36.9555 43.3484 36.9196 43.1697 36.9194 42.9891C36.9191 42.8086 36.9546 42.6298 37.0236 42.4629C37.0926 42.296 37.1939 42.1444 37.3216 42.0165C37.4494 41.8887 37.6011 41.7873 37.7682 41.718C37.9352 41.6487 38.1143 41.6129 38.2952 41.6127H80.5389C80.9043 41.6122 81.2548 41.7566 81.5135 42.0141C81.7722 42.2716 81.9177 42.6211 81.9182 42.9857C81.9187 43.3503 81.774 43.7002 81.5159 43.9583C81.2579 44.2164 80.9077 44.3617 80.5423 44.3622H80.5389Z" fill="#529ADD"/>
<path d="M80.5389 49.7945H38.2987C37.9333 49.7945 37.5829 49.6496 37.3245 49.3918C37.0662 49.134 36.921 48.7843 36.921 48.4196C36.921 48.055 37.0662 47.7053 37.3245 47.4475C37.5829 47.1897 37.9333 47.0448 38.2987 47.0448H80.5389C80.9043 47.0448 81.2547 47.1897 81.513 47.4475C81.7714 47.7053 81.9166 48.055 81.9166 48.4196C81.9166 48.7843 81.7714 49.134 81.513 49.3918C81.2547 49.6496 80.9043 49.7945 80.5389 49.7945Z" fill="#529ADD"/>
<path d="M56.6088 55.2268H38.2987C37.9333 55.2268 37.5829 55.0819 37.3245 54.8241C37.0662 54.5663 36.921 54.2166 36.921 53.852C36.921 53.4873 37.0662 53.1376 37.3245 52.8798C37.5829 52.622 37.9333 52.4771 38.2987 52.4771H56.6088C56.9742 52.4771 57.3246 52.622 57.583 52.8798C57.8413 53.1376 57.9865 53.4873 57.9865 53.852C57.9865 54.2166 57.8413 54.5663 57.583 54.8241C57.3246 55.0819 56.9742 55.2268 56.6088 55.2268Z" fill="#529ADD"/>
<path d="M80.5389 66.6041H38.2987C37.9333 66.6045 37.5827 66.4601 37.3241 66.2026C37.0654 65.9451 36.9198 65.5956 36.9194 65.231C36.9189 64.8664 37.0636 64.5166 37.3216 64.2585C37.5797 64.0003 37.9299 63.855 38.2952 63.8546H80.5389C80.9043 63.8541 81.2548 63.9985 81.5135 64.256C81.7722 64.5135 81.9177 64.863 81.9182 65.2276C81.9187 65.5922 81.774 65.9421 81.5159 66.2002C81.2579 66.4583 80.9077 66.6036 80.5423 66.6041H80.5389Z" fill="#E4E4E4"/>
<path d="M80.5389 72.0364H38.2987C37.9333 72.0364 37.5829 71.8915 37.3245 71.6337C37.0662 71.3759 36.921 71.0262 36.921 70.6616C36.921 70.2969 37.0662 69.9472 37.3245 69.6894C37.5829 69.4316 37.9333 69.2867 38.2987 69.2867H80.5389C80.9043 69.2867 81.2547 69.4316 81.513 69.6894C81.7714 69.9472 81.9166 70.2969 81.9166 70.6616C81.9166 71.0262 81.7714 71.3759 81.513 71.6337C81.2547 71.8915 80.9043 72.0364 80.5389 72.0364Z" fill="#E4E4E4"/>
<path d="M56.6088 77.4687H38.2987C37.9333 77.4687 37.5829 77.3238 37.3245 77.066C37.0662 76.8082 36.921 76.4585 36.921 76.0939C36.921 75.7292 37.0662 75.3796 37.3245 75.1217C37.5829 74.8639 37.9333 74.7191 38.2987 74.7191H56.6088C56.9742 74.7191 57.3246 74.8639 57.583 75.1217C57.8413 75.3796 57.9865 75.7292 57.9865 76.0939C57.9865 76.4585 57.8413 76.8082 57.583 77.066C57.3246 77.3238 56.9742 77.4687 56.6088 77.4687Z" fill="#E4E4E4"/>
<path d="M80.5389 88.846H38.2987C37.9333 88.8464 37.5827 88.702 37.3241 88.4445C37.0654 88.1871 36.9198 87.8376 36.9194 87.473C36.9189 87.1084 37.0636 86.7585 37.3216 86.5004C37.5797 86.2422 37.9299 86.097 38.2952 86.0965H80.5389C80.9043 86.096 81.2548 86.2404 81.5135 86.4979C81.7722 86.7554 81.9177 87.1049 81.9182 87.4695C81.9187 87.8341 81.774 88.184 81.5159 88.4421C81.2579 88.7002 80.9077 88.8455 80.5423 88.846H80.5389Z" fill="#E4E4E4"/>
<path d="M80.5389 94.2783H38.2987C37.9333 94.2783 37.5829 94.1335 37.3245 93.8756C37.0662 93.6178 36.921 93.2681 36.921 92.9035C36.921 92.5389 37.0662 92.1892 37.3245 91.9313C37.5829 91.6735 37.9333 91.5287 38.2987 91.5287H80.5389C80.9043 91.5287 81.2547 91.6735 81.513 91.9313C81.7714 92.1892 81.9166 92.5389 81.9166 92.9035C81.9166 93.2681 81.7714 93.6178 81.513 93.8756C81.2547 94.1335 80.9043 94.2783 80.5389 94.2783Z" fill="#E4E4E4"/>
<path d="M56.6088 99.7106H38.2987C37.9337 99.7099 37.584 99.5647 37.3262 99.307C37.0684 99.0492 36.9236 98.7 36.9236 98.3358C36.9236 97.9716 37.0684 97.6223 37.3262 97.3646C37.584 97.1068 37.9337 96.9617 38.2987 96.961H56.6088C56.9737 96.9617 57.3234 97.1068 57.5812 97.3646C57.839 97.6223 57.9838 97.9716 57.9838 98.3358C57.9838 98.7 57.839 99.0492 57.5812 99.307C57.3234 99.5647 56.9737 99.7099 56.6088 99.7106Z" fill="#E4E4E4"/>
<path d="M93.2934 44.9299C103.184 44.9299 111.203 36.9282 111.203 27.0575C111.203 17.1869 103.184 9.18521 93.2934 9.18521C83.4024 9.18521 75.3841 17.1869 75.3841 27.0575C75.3841 36.9282 83.4024 44.9299 93.2934 44.9299Z" fill="#529ADD"/>
<path opacity="0.16" d="M93.2934 42.454C88.7625 42.4534 84.4002 40.7387 81.0858 37.6556C77.7715 34.5725 75.7516 30.3502 75.4332 25.8397C75.4042 26.2558 75.3841 26.6743 75.3841 27.0978C75.3859 31.8367 77.2736 36.3808 80.632 39.7311C83.9905 43.0814 88.5448 44.9634 93.2934 44.9634C98.0421 44.9634 102.596 43.0814 105.955 39.7311C109.313 36.3808 111.201 31.8367 111.203 27.0978C111.203 26.6743 111.183 26.2558 111.154 25.8397C110.835 30.3502 108.815 34.5725 105.501 37.6556C102.187 40.7387 97.8244 42.4534 93.2934 42.454Z" fill="#231F20"/>
<path d="M93.2935 35.7914C92.6989 35.7907 92.1288 35.5546 91.7083 35.135C91.2878 34.7154 91.0513 34.1465 91.0506 33.5531V20.6022C91.0503 20.3081 91.1081 20.0168 91.2207 19.745C91.3332 19.4732 91.4984 19.2261 91.7067 19.0181C91.915 18.81 92.1623 18.6449 92.4346 18.5323C92.7069 18.4196 92.9987 18.3617 93.2934 18.3617C93.5882 18.3617 93.88 18.4196 94.1523 18.5323C94.4246 18.6449 94.6719 18.81 94.8802 19.0181C95.0885 19.2261 95.2537 19.4732 95.3662 19.745C95.4788 20.0168 95.5366 20.3081 95.5363 20.6022V33.5531C95.5356 34.1465 95.2991 34.7154 94.8787 35.135C94.4582 35.5546 93.8881 35.7907 93.2935 35.7914Z" fill="white"/>
<path d="M84.5617 27.0777C84.5624 26.4843 84.7989 25.9154 85.2194 25.4958C85.6399 25.0762 86.21 24.8401 86.8046 24.8394H99.7823C100.077 24.8391 100.369 24.8968 100.641 25.0091C100.914 25.1215 101.161 25.2863 101.37 25.4942C101.578 25.702 101.744 25.9489 101.857 26.2206C101.969 26.4923 102.027 26.7835 102.027 27.0777C102.027 27.3718 101.969 27.663 101.857 27.9347C101.744 28.2064 101.578 28.4533 101.37 28.6611C101.161 28.869 100.914 29.0338 100.641 29.1462C100.369 29.2585 100.077 29.3162 99.7823 29.3159H86.8046C86.21 29.3152 85.6399 29.0792 85.2194 28.6596C84.7989 28.24 84.5624 27.6711 84.5617 27.0777Z" fill="white"/>
<path d="M120.216 30.8753L116.405 28.4483L111.398 33.4665L101.946 42.2415C101.435 42.1278 100.901 42.1717 100.415 42.3674C99.9293 42.5631 99.5145 42.9014 99.2255 43.3375C98.9366 43.7736 98.7871 44.2869 98.7969 44.8096C98.8067 45.3323 98.9752 45.8397 99.2803 46.2648C99.5853 46.6898 100.012 47.0124 100.505 47.1899C100.998 47.3674 101.533 47.3914 102.04 47.2587C102.547 47.1261 103.001 46.8431 103.343 46.4471C103.685 46.0511 103.899 45.5609 103.955 45.0411L114.379 37.2449L120.216 30.8753Z" fill="#FFB8B8"/>
<path d="M117.917 34.661L115.156 28.5197L115.217 28.4434C115.255 28.3955 119.062 23.6055 122.119 20.7991C122.45 20.4762 122.847 20.2292 123.284 20.0754C123.72 19.9215 124.185 19.8645 124.646 19.9083C125.293 19.9634 125.911 20.2059 126.422 20.606C126.934 21.0062 127.317 21.5466 127.526 22.161C127.764 22.8025 127.813 23.4989 127.665 24.1671C127.518 24.8352 127.181 25.4469 126.694 25.9289L117.917 34.661Z" fill="#529ADD"/>
<path d="M120.411 14.4754C123.72 14.4754 126.403 11.7985 126.403 8.49637C126.403 5.19426 123.72 2.51736 120.411 2.51736C117.103 2.51736 114.42 5.19426 114.42 8.49637C114.42 11.7985 117.103 14.4754 120.411 14.4754Z" fill="#FFB8B8"/>
<path d="M111.103 114.717H108.626L107.447 105.184H111.103V114.717Z" fill="#FFB8B8"/>
<path d="M112.41 119H110.634L110.317 117.326L109.505 119H104.794C104.568 119 104.348 118.928 104.166 118.794C103.984 118.661 103.85 118.473 103.783 118.258C103.716 118.043 103.719 117.812 103.793 117.599C103.866 117.386 104.006 117.202 104.192 117.074L107.954 114.481V112.789L111.911 113.025L112.41 119Z" fill="#2F2E41"/>
<path d="M142.146 112.618L139.845 113.532L135.216 105.109L138.613 103.76L142.146 112.618Z" fill="#FFB8B8"/>
<path d="M144.948 116.114L143.297 116.77L142.383 115.332L142.248 117.186L137.871 118.925C137.662 119.008 137.431 119.023 137.212 118.966C136.994 118.909 136.799 118.784 136.657 118.609C136.515 118.433 136.432 118.218 136.422 117.992C136.411 117.767 136.473 117.545 136.598 117.357L139.133 113.56L138.506 111.988L142.27 110.746L144.948 116.114Z" fill="#2F2E41"/>
<path d="M112.058 110.338H106.935L108.351 86.3171L107.316 70.0355L107.318 70.0224L111.179 46.6834C111.482 44.843 112.303 43.1263 113.545 41.7328L113.592 41.68L126.512 44.8643L127.811 47.8202C132.247 50.4528 133.647 65.2986 133.705 65.931L135.583 84.4378L140.176 107.12L136.942 108.858L136.887 108.75L126.675 88.4851L120.226 67.114L116.095 86.3484L112.058 110.338Z" fill="#2F2E41"/>
<path d="M127.831 8.77775C127.619 7.38798 127.398 5.98657 126.9 4.67797C126.402 3.36936 125.599 2.14366 124.447 1.40235C122.624 0.228671 120.263 0.455032 118.219 1.13016C116.638 1.65228 115.094 2.44585 113.979 3.72165C112.864 4.99746 112.238 6.8179 112.653 8.48606C114.834 7.97189 117.014 7.45772 119.195 6.94355L118.957 7.11188C119.673 7.46819 120.298 7.98261 120.785 8.61609C121.272 9.24957 121.608 9.98546 121.768 10.7679C121.923 11.5599 121.901 12.3765 121.702 13.1588C121.503 13.941 121.132 14.6693 120.616 15.291C122.104 14.7645 123.591 14.238 125.078 13.7115C125.996 13.3865 126.979 13.0121 127.523 12.1785C128.154 11.2121 128.007 9.9311 127.831 8.77775Z" fill="#2F2E41"/>
<path d="M0.314102 118.942H164.686C164.769 118.942 164.849 118.909 164.908 118.851C164.967 118.792 165 118.712 165 118.629C165 118.546 164.967 118.466 164.908 118.407C164.849 118.349 164.769 118.315 164.686 118.315H0.314102C0.230795 118.315 0.150905 118.349 0.091999 118.407C0.0330925 118.466 0 118.546 0 118.629C0 118.712 0.0330925 118.792 0.091999 118.851C0.150905 118.909 0.230795 118.942 0.314102 118.942Z" fill="#CCCCCC"/>
</g>
<defs>
<clipPath id="clip0_45_43">
<rect width="165" height="119" fill="white"/>
</clipPath>
</defs>
</svg>
