<svg width="148" height="119" viewBox="0 0 148 119" fill="none" xmlns="http://www.w3.org/2000/svg">
<g clip-path="url(#clip0_46_3)">
<path d="M53.8551 90.2665C53.407 89.1942 53.3578 87.9973 53.7163 86.8919C54.0748 85.7866 54.8174 84.8457 55.8099 84.2393C56.1405 84.0386 55.8383 83.5187 55.5061 83.7203C54.3677 84.3991 53.518 85.4711 53.118 86.7334C52.7179 87.9957 52.7953 89.3606 53.3354 90.5698C53.4873 90.9243 54.0059 90.6185 53.8551 90.2665Z" fill="#3F3D56"/>
<path d="M54.0273 91.0748C53.2155 89.6387 53.4065 87.9201 53.6985 86.3671C54.0034 84.7459 54.4029 83.0999 54.0572 81.451C53.9004 80.6505 53.5293 79.9074 52.9832 79.3007C52.7203 79.0155 52.2955 79.4414 52.5576 79.7257C53.5786 80.8329 53.697 82.4392 53.5314 83.8657C53.3361 85.5482 52.7825 87.1878 52.8512 88.8976C52.8692 89.7648 53.0942 90.6152 53.5076 91.3781C53.5493 91.4441 53.615 91.4913 53.6909 91.5097C53.7667 91.5282 53.8468 91.5166 53.9142 91.4772C53.9817 91.4379 54.0311 91.3739 54.0522 91.2988C54.0733 91.2238 54.0644 91.1434 54.0273 91.0748Z" fill="#3F3D56"/>
<path d="M58.3842 95.6608H48.1519C47.9125 95.6605 47.6831 95.5654 47.5138 95.3964C47.3445 95.2274 47.2493 94.9983 47.2491 94.7593V91.7581C47.2499 90.9869 47.5571 90.2476 48.1033 89.7023C48.6494 89.1569 49.3899 88.8502 50.1622 88.8493H51.663C51.7428 88.8492 51.8193 88.8176 51.8757 88.7612C51.9321 88.7049 51.9639 88.6285 51.9639 88.5488V87.1465C51.9641 87.0137 52.017 86.8864 52.111 86.7925C52.2051 86.6986 52.3325 86.6458 52.4655 86.6456H54.0706C54.2036 86.6458 54.3311 86.6986 54.4251 86.7925C54.5191 86.8864 54.572 87.0137 54.5722 87.1465V88.5488C54.5723 88.6285 54.604 88.7049 54.6604 88.7612C54.7168 88.8176 54.7933 88.8492 54.8731 88.8493H56.3739C57.1462 88.8502 57.8867 89.1569 58.4328 89.7023C58.979 90.2476 59.2862 90.9869 59.287 91.7581V94.7593C59.2868 94.9983 59.1916 95.2274 59.0223 95.3964C58.853 95.5655 58.6235 95.6605 58.3842 95.6608Z" fill="#CCCCCC"/>
<path d="M53.4253 77.6384C53.6407 78.7801 53.374 79.7886 52.8296 79.891C52.2851 79.9935 51.6691 79.151 51.4537 78.0094C51.2382 76.8677 51.9008 74.9692 51.9008 74.9692C51.9008 74.9692 53.2099 76.4967 53.4253 77.6384Z" fill="#529ADD"/>
<path d="M57.5571 82.9498C56.8748 83.8909 55.9579 84.3908 55.5092 84.0664C55.0604 83.742 55.2496 82.7161 55.9319 81.7751C56.6141 80.834 58.4503 80.0094 58.4503 80.0094C58.4503 80.0094 58.2393 82.0088 57.5571 82.9498Z" fill="#529ADD"/>
<path d="M34.9957 18.1452C34.5476 17.073 34.4984 15.876 34.8569 14.7707C35.2154 13.6654 35.9579 12.7245 36.9505 12.1181C37.281 11.9174 36.9789 11.3974 36.6467 11.5991C35.5082 12.2779 34.6586 13.3499 34.2585 14.6122C33.8585 15.8745 33.9358 17.2394 34.4759 18.4486C34.6278 18.8031 35.1464 18.4973 34.9957 18.1452Z" fill="#3F3D56"/>
<path d="M35.1678 18.9536C34.356 17.5175 34.547 15.7989 34.839 14.2459C35.1439 12.6247 35.5434 10.9786 35.1977 9.32981C35.0409 8.52928 34.6698 7.78616 34.1237 7.17946C33.8608 6.89429 33.436 7.32015 33.6981 7.60443C34.7191 8.7117 34.8375 10.318 34.6719 11.7445C34.4766 13.427 33.923 15.0666 33.9917 16.7763C34.0097 17.6436 34.2347 18.494 34.6481 19.2569C34.6898 19.3229 34.7555 19.37 34.8314 19.3885C34.9072 19.407 34.9873 19.3954 35.0547 19.356C35.1222 19.3167 35.1716 19.2527 35.1927 19.1776C35.2138 19.1025 35.2049 19.0222 35.1678 18.9536Z" fill="#3F3D56"/>
<path d="M39.5247 23.5396H29.2924C29.053 23.5393 28.8235 23.4442 28.6543 23.2752C28.485 23.1062 28.3898 22.8771 28.3896 22.6381V19.6369C28.3904 18.8657 28.6976 18.1264 29.2438 17.5811C29.7899 17.0357 30.5303 16.729 31.3027 16.7281H32.8035C32.8833 16.728 32.9598 16.6963 33.0162 16.64C33.0726 16.5837 33.1043 16.5073 33.1044 16.4276V15.0253C33.1046 14.8925 33.1575 14.7652 33.2515 14.6713C33.3455 14.5774 33.473 14.5246 33.606 14.5244H35.2111C35.3441 14.5246 35.4715 14.5774 35.5656 14.6713C35.6596 14.7652 35.7125 14.8925 35.7127 15.0253V16.4276C35.7127 16.5073 35.7445 16.5837 35.8009 16.64C35.8573 16.6963 35.9338 16.728 36.0136 16.7281H37.5144C38.2867 16.729 39.0272 17.0357 39.5733 17.5811C40.1194 18.1264 40.4266 18.8657 40.4275 19.6369V22.6381C40.4273 22.8771 40.3321 23.1062 40.1628 23.2752C39.9935 23.4442 39.7641 23.5393 39.5247 23.5396Z" fill="#CCCCCC"/>
<path d="M34.5658 5.5172C34.7812 6.65886 34.5145 7.6674 33.9701 7.76983C33.4256 7.87227 32.8096 7.02981 32.5942 5.88815C32.3787 4.74649 33.0413 2.84802 33.0413 2.84802C33.0413 2.84802 34.3504 4.37554 34.5658 5.5172Z" fill="#529ADD"/>
<path d="M38.6976 10.8286C38.0153 11.7697 37.0985 12.2696 36.6497 11.9452C36.2009 11.6208 36.3901 10.5949 37.0724 9.65388C37.7546 8.71282 39.5908 7.88818 39.5908 7.88818C39.5908 7.88818 39.3798 9.88755 38.6976 10.8286Z" fill="#529ADD"/>
<path d="M14.6462 54.4916H6.42026V57.4966H14.6462V54.4916Z" fill="#529ADD"/>
<path d="M14.6462 64.3081H6.42026V67.3131H14.6462V64.3081Z" fill="#529ADD"/>
<path d="M64.8044 118.8H3.41076C2.50648 118.799 1.63953 118.44 1.00011 117.801C0.360687 117.163 0.00101374 116.297 0 115.394V3.40572C0.00101374 2.50278 0.360687 1.63711 1.00011 0.998633C1.63953 0.360155 2.50648 0.00101225 3.41076 0H64.8044C65.7087 0.00101648 66.5757 0.360159 67.2151 0.998636C67.8545 1.63711 68.2142 2.50278 68.2152 3.40572V115.394C68.2142 116.297 67.8545 117.163 67.2151 117.801C66.5757 118.44 65.7087 118.799 64.8044 118.8ZM3.41076 0.400673C2.61287 0.401575 1.84792 0.718466 1.28372 1.28183C0.719531 1.84519 0.402169 2.60901 0.401266 3.40572V115.394C0.402169 116.191 0.719531 116.954 1.28372 117.518C1.84792 118.081 2.61287 118.398 3.41076 118.399H64.8044C65.6023 118.398 66.3673 118.081 66.9315 117.518C67.4957 116.954 67.813 116.191 67.8139 115.394V3.40572C67.813 2.60901 67.4957 1.84519 66.9315 1.28183C66.3673 0.718466 65.6023 0.401575 64.8044 0.400673H3.41076Z" fill="#3F3D56"/>
<path d="M68.0145 23.1294H0.200623V23.5301H68.0145V23.1294Z" fill="#3F3D56"/>
<path d="M68.0145 47.1761H0.200623V47.5768H68.0145V47.1761Z" fill="#3F3D56"/>
<path d="M68.0145 71.2228H0.200623V71.6235H68.0145V71.2228Z" fill="#3F3D56"/>
<path d="M68.0145 95.2696H0.200623V95.6703H68.0145V95.2696Z" fill="#3F3D56"/>
<path d="M14.0443 71.7205H7.22277C6.95681 71.7202 6.70183 71.6146 6.51376 71.4268C6.3257 71.239 6.21991 70.9844 6.2196 70.7189V51.2862C6.21991 51.0206 6.3257 50.766 6.51376 50.5782C6.70183 50.3905 6.95681 50.2848 7.22277 50.2845H14.0443C14.3102 50.2848 14.5652 50.3905 14.7533 50.5782C14.9414 50.766 15.0471 51.0206 15.0475 51.2862V70.7189C15.0471 70.9844 14.9414 71.239 14.7533 71.4268C14.5652 71.6146 14.3102 71.7202 14.0443 71.7205ZM7.22277 50.6852C7.06319 50.6854 6.9102 50.7487 6.79736 50.8614C6.68452 50.9741 6.62105 51.1269 6.62087 51.2862V70.7189C6.62105 70.8782 6.68452 71.031 6.79736 71.1436C6.9102 71.2563 7.06319 71.3197 7.22277 71.3199H14.0443C14.2039 71.3197 14.3569 71.2563 14.4697 71.1436C14.5825 71.031 14.646 70.8782 14.6462 70.7189V51.2862C14.646 51.1269 14.5825 50.9741 14.4697 50.8614C14.3569 50.7487 14.2039 50.6854 14.0443 50.6852H7.22277Z" fill="#3F3D56"/>
<path d="M27.2861 54.4916H19.0601V57.4966H27.2861V54.4916Z" fill="#529ADD"/>
<path d="M27.2861 64.3081H19.0601V67.3131H27.2861V64.3081Z" fill="#529ADD"/>
<path d="M26.6842 71.7205H19.8627C19.5967 71.7202 19.3417 71.6146 19.1537 71.4268C18.9656 71.239 18.8598 70.9844 18.8595 70.7189V51.2862C18.8598 51.0206 18.9656 50.766 19.1537 50.5782C19.3417 50.3905 19.5967 50.2848 19.8627 50.2845H26.6842C26.9501 50.2848 27.2051 50.3905 27.3932 50.5782C27.5812 50.766 27.687 51.0206 27.6873 51.2862V70.7189C27.687 70.9844 27.5812 71.239 27.3932 71.4268C27.2051 71.6146 26.9501 71.7202 26.6842 71.7205ZM19.8627 50.6852C19.7031 50.6854 19.5501 50.7487 19.4373 50.8614C19.3244 50.9741 19.2609 51.1269 19.2608 51.2862V70.7189C19.2609 70.8782 19.3244 71.031 19.4373 71.1436C19.5501 71.2563 19.7031 71.3197 19.8627 71.3199H26.6842C26.8438 71.3197 26.9967 71.2563 27.1096 71.1436C27.2224 71.031 27.2859 70.8782 27.2861 70.7189V51.2862C27.2859 51.1269 27.2224 50.9741 27.1096 50.8614C26.9967 50.7487 26.8438 50.6854 26.6842 50.6852H19.8627Z" fill="#3F3D56"/>
<path d="M47.3494 30.2509H39.1234V33.2559H47.3494V30.2509Z" fill="#529ADD"/>
<path d="M47.3494 40.0674H39.1234V43.0724H47.3494V40.0674Z" fill="#529ADD"/>
<path d="M46.7475 47.4798H39.926C39.66 47.4795 39.405 47.3738 39.2169 47.1861C39.0289 46.9983 38.9231 46.7437 38.9228 46.4781V27.0454C38.9231 26.7799 39.0289 26.5253 39.2169 26.3375C39.405 26.1497 39.66 26.0441 39.926 26.0438H46.7475C47.0134 26.0441 47.2684 26.1497 47.4565 26.3375C47.6445 26.5253 47.7503 26.7799 47.7506 27.0454V46.4781C47.7503 46.7437 47.6445 46.9983 47.4565 47.1861C47.2684 47.3739 47.0134 47.4795 46.7475 47.4798ZM39.926 26.4444C39.7664 26.4446 39.6134 26.508 39.5005 26.6207C39.3877 26.7333 39.3242 26.8861 39.3241 27.0454V46.4781C39.3242 46.6374 39.3877 46.7902 39.5005 46.9029C39.6134 47.0156 39.7664 47.0789 39.926 47.0791H46.7475C46.9071 47.0789 47.06 47.0156 47.1729 46.9029C47.2857 46.7902 47.3492 46.6375 47.3494 46.4781V27.0454C47.3492 26.8861 47.2857 26.7333 47.1729 26.6207C47.06 26.508 46.9071 26.4446 46.7475 26.4444H39.926Z" fill="#3F3D56"/>
<path d="M59.9893 30.2509H51.7633V33.2559H59.9893V30.2509Z" fill="#529ADD"/>
<path d="M59.9893 40.0674H51.7633V43.0724H59.9893V40.0674Z" fill="#529ADD"/>
<path d="M59.3873 47.4798H52.5658C52.2999 47.4795 52.0449 47.3739 51.8568 47.1861C51.6687 46.9983 51.563 46.7437 51.5627 46.4781V27.0454C51.563 26.7799 51.6687 26.5253 51.8568 26.3375C52.0449 26.1497 52.2999 26.0441 52.5658 26.0438H59.3873C59.6533 26.0441 59.9083 26.1497 60.0963 26.3375C60.2844 26.5253 60.3902 26.7799 60.3905 27.0454V46.4781C60.3902 46.7437 60.2844 46.9983 60.0963 47.1861C59.9083 47.3739 59.6533 47.4795 59.3873 47.4798ZM52.5658 26.4444C52.4062 26.4446 52.2532 26.508 52.1404 26.6207C52.0276 26.7333 51.9641 26.8861 51.9639 27.0454V46.4781C51.9641 46.6375 52.0276 46.7902 52.1404 46.9029C52.2532 47.0156 52.4062 47.0789 52.5658 47.0791H59.3873C59.5469 47.0789 59.6999 47.0156 59.8127 46.9029C59.9256 46.7902 59.9891 46.6375 59.9892 46.4781V27.0454C59.9891 26.8861 59.9256 26.7333 59.8127 26.6207C59.6999 26.508 59.5469 26.4446 59.3873 26.4444H52.5658Z" fill="#3F3D56"/>
<path d="M37.3759 52.6969L29.6756 55.5862L30.7342 58.3992L38.4345 55.5099L37.3759 52.6969Z" fill="#529ADD"/>
<path d="M40.834 61.8861L33.1337 64.7753L34.1923 67.5883L41.8926 64.6991L40.834 61.8861Z" fill="#529ADD"/>
<path d="M36.1428 71.4967C35.9388 71.4963 35.7397 71.4339 35.5721 71.3178C35.4044 71.2017 35.2761 71.0375 35.2043 70.8468L28.3586 52.6561C28.2654 52.4074 28.2747 52.1319 28.3846 51.8901C28.4945 51.6483 28.6959 51.4598 28.9448 51.3661L35.3304 48.9702C35.4537 48.9239 35.5849 48.9023 35.7166 48.9067C35.8483 48.911 35.9778 48.9413 36.0978 48.9956C36.2178 49.05 36.3258 49.1274 36.4158 49.2235C36.5058 49.3196 36.576 49.4324 36.6223 49.5555L43.4679 67.7463C43.5612 67.995 43.5518 68.2704 43.442 68.5123C43.3321 68.7541 43.1306 68.9425 42.8818 69.0362L36.4962 71.4322C36.3832 71.4748 36.2635 71.4966 36.1428 71.4967ZM35.6836 49.3065C35.6112 49.3066 35.5393 49.3197 35.4715 49.3452L29.086 51.7412C28.9366 51.7974 28.8158 51.9105 28.7498 52.0556C28.6839 52.2007 28.6783 52.366 28.7342 52.5152L35.5799 70.7059C35.6077 70.7798 35.6498 70.8475 35.7038 70.9052C35.7578 70.9628 35.8226 71.0092 35.8946 71.0419C35.9666 71.0745 36.0443 71.0926 36.1233 71.0952C36.2023 71.0978 36.281 71.0849 36.355 71.0571L42.7406 68.6612C42.8899 68.605 43.0108 68.4919 43.0767 68.3468C43.1427 68.2017 43.1483 68.0364 43.0923 67.8871L36.2467 49.6964C36.2035 49.582 36.1266 49.4835 36.026 49.4138C35.9254 49.3442 35.806 49.3068 35.6836 49.3065Z" fill="#3F3D56"/>
<path d="M9.68853 28.8569L1.98828 31.7461L3.04688 34.5591L10.7471 31.6699L9.68853 28.8569Z" fill="#529ADD"/>
<path d="M13.1466 38.046L5.44638 40.9353L6.50498 43.7483L14.2052 40.859L13.1466 38.046Z" fill="#529ADD"/>
<path d="M8.45547 47.6567C8.25145 47.6563 8.0524 47.5939 7.88475 47.4778C7.71711 47.3617 7.58882 47.1974 7.51694 47.0067L0.671293 28.816C0.578056 28.5673 0.587405 28.2919 0.697287 28.05C0.80717 27.8082 1.00861 27.6198 1.25744 27.526L7.64307 25.1301C7.76639 25.0838 7.89763 25.0623 8.0293 25.0666C8.16097 25.071 8.29049 25.1012 8.41046 25.1556C8.53044 25.2099 8.6385 25.2874 8.7285 25.3834C8.8185 25.4795 8.88866 25.5923 8.93498 25.7155L15.7806 43.9062C15.8739 44.1549 15.8645 44.4304 15.7546 44.6722C15.6448 44.914 15.4433 45.1025 15.1945 45.1962L8.80885 47.5921C8.69591 47.6347 8.5762 47.6566 8.45547 47.6567ZM7.99628 25.4664C7.92383 25.4665 7.85199 25.4796 7.78421 25.5052L1.39864 27.9011C1.24932 27.9573 1.12844 28.0704 1.06251 28.2155C0.996573 28.3606 0.990966 28.5259 1.04692 28.6752L7.89256 46.8659C7.92036 46.9398 7.96246 47.0075 8.01646 47.0651C8.07046 47.1227 8.1353 47.1692 8.20728 47.2018C8.27927 47.2344 8.35698 47.2525 8.43598 47.2552C8.51498 47.2578 8.59372 47.2448 8.66771 47.2171L15.0533 44.8211C15.2026 44.7649 15.3235 44.6518 15.3894 44.5067C15.4553 44.3616 15.461 44.1963 15.405 44.0471L8.55936 25.8564C8.51622 25.742 8.43925 25.6434 8.33868 25.5738C8.2381 25.5041 8.11868 25.4667 7.99628 25.4664Z" fill="#3F3D56"/>
<path d="M125.797 50.0842C129.232 50.0842 132.016 47.3037 132.016 43.8737C132.016 40.4438 129.232 37.6633 125.797 37.6633C122.362 37.6633 119.577 40.4438 119.577 43.8737C119.577 47.3037 122.362 50.0842 125.797 50.0842Z" fill="#2F2E41"/>
<path d="M98.1657 72.2156C98.4596 72.3293 98.7748 72.3772 99.0891 72.3561C99.4035 72.3349 99.7094 72.2452 99.9854 72.0933C100.261 71.9413 100.5 71.7308 100.686 71.4765C100.872 71.2223 100.999 70.9305 101.06 70.6217L118.161 59.8479L115.048 56.3486L99.2097 68.0465C98.6835 67.9794 98.1509 68.1075 97.7129 68.4063C97.2749 68.7052 96.9619 69.1541 96.8332 69.668C96.7045 70.1819 96.7691 70.7251 97.0147 71.1946C97.2603 71.6642 97.6698 72.0274 98.1657 72.2156Z" fill="#FFB8B8"/>
<path d="M114.591 62.7122C114.439 62.7125 114.29 62.6748 114.157 62.6025C114.024 62.5303 113.912 62.4259 113.83 62.2988L111.849 59.2259C111.724 59.0319 111.679 58.7975 111.721 58.5709C111.764 58.3442 111.892 58.1426 112.08 58.0075L118.707 53.2248C119.028 52.9927 119.393 52.8274 119.78 52.7386C120.166 52.6498 120.567 52.6393 120.958 52.7078C121.349 52.7763 121.722 52.9224 122.055 53.1374C122.388 53.3524 122.675 53.6319 122.898 53.9595C123.121 54.2871 123.276 54.656 123.354 55.0445C123.432 55.433 123.431 55.8331 123.351 56.2212C123.272 56.6093 123.115 56.9775 122.89 57.304C122.665 57.6305 122.377 57.9087 122.043 58.1221L115.075 62.5706C114.931 62.6632 114.762 62.7124 114.591 62.7122Z" fill="#2F2E41"/>
<path d="M117.55 116.366L115.09 116.365L113.92 106.892L117.55 106.892L117.55 116.366Z" fill="#FFB8B8"/>
<path d="M113.333 115.664H118.077V118.646H110.346C110.346 118.254 110.423 117.867 110.574 117.505C110.724 117.143 110.944 116.814 111.221 116.537C111.498 116.26 111.828 116.041 112.19 115.891C112.552 115.741 112.941 115.664 113.333 115.664Z" fill="#2F2E41"/>
<path d="M129.033 114.529L126.664 115.193L122.973 106.388L126.468 105.408L129.033 114.529Z" fill="#FFB8B8"/>
<path d="M124.783 114.992L129.35 113.711L130.157 116.583L122.715 118.669C122.609 118.292 122.578 117.898 122.625 117.509C122.671 117.12 122.794 116.744 122.986 116.403C123.178 116.061 123.436 115.761 123.744 115.519C124.052 115.277 124.405 115.097 124.783 114.992Z" fill="#2F2E41"/>
<path d="M135.66 99.9907L126.111 88.7376L131.905 81.717C131.99 81.6141 132.097 81.5312 132.218 81.4745C132.339 81.4178 132.471 81.3885 132.604 81.3889C132.738 81.3893 132.87 81.4193 132.991 81.4768C133.111 81.5342 133.217 81.6177 133.302 81.7211L142.07 92.4659L135.66 99.9907Z" fill="#529ADD"/>
<path d="M126.496 88.8214C126.637 88.5684 126.811 88.3356 127.015 88.1296L132.546 82.5307C132.762 82.3102 133.054 82.1793 133.363 82.1641C133.995 82.1343 135.032 82.198 135.321 82.8903L127.854 88.9908L126.496 88.8214Z" fill="#F2F2F2"/>
<path d="M135.992 102.372C135.566 102.359 135.152 102.228 134.796 101.994L134.77 101.967L126.024 88.6104L127.475 88.4704L135.253 82.4125C135.351 82.336 135.464 82.2807 135.585 82.2499C135.706 82.2191 135.832 82.2136 135.954 82.2337C136.077 82.2538 136.195 82.299 136.299 82.3666C136.404 82.4342 136.493 82.5226 136.562 82.6263L145.064 95.4755C145.194 95.6739 145.241 95.9156 145.195 96.1484C145.149 96.3812 145.012 96.5864 144.816 96.7198L136.588 102.259C136.399 102.335 136.196 102.373 135.992 102.372Z" fill="#529ADD"/>
<path d="M132.899 93.2354C132.816 93.2356 132.735 93.2155 132.663 93.177C132.59 93.1384 132.528 93.0827 132.482 93.0145L131.477 91.5243C131.403 91.4141 131.376 91.2789 131.401 91.1486C131.427 91.0183 131.503 90.9033 131.613 90.829L136.768 87.364C136.878 87.2901 137.013 87.2629 137.144 87.2883C137.274 87.3137 137.389 87.3898 137.464 87.4998L138.468 88.99C138.543 89.1002 138.57 89.2353 138.544 89.3657C138.519 89.496 138.443 89.611 138.332 89.6853L133.178 93.1503C133.095 93.2058 132.998 93.2354 132.899 93.2354Z" fill="#3F3D56"/>
<path d="M113.531 114.933C113.256 114.932 112.992 114.828 112.79 114.643C112.588 114.457 112.463 114.203 112.439 113.93C112.002 108.965 109.806 83.9399 109.565 78.8861C109.297 73.2708 113.977 64.3875 114.024 64.2985L114.057 64.2375L116.37 64.526V64.7946L118.572 65.0533L122.833 65.4651L124.053 80.3538L124.592 90.4512L129.66 111.075C129.718 111.303 129.683 111.545 129.563 111.748C129.444 111.951 129.249 112.098 129.021 112.159L124.61 113.36C124.381 113.422 124.137 113.391 123.93 113.274C123.723 113.158 123.57 112.965 123.504 112.737L119.352 98.1715C119.332 98.101 119.286 98.0402 119.225 98.0007C119.163 97.9612 119.089 97.9456 119.016 97.9568C118.944 97.9681 118.878 98.0054 118.831 98.0618C118.784 98.1182 118.759 98.1897 118.762 98.263L119.201 112.466C119.203 112.612 119.175 112.757 119.12 112.891C119.064 113.026 118.981 113.148 118.876 113.25C117.865 114.198 115.194 114.704 113.692 114.921C113.638 114.929 113.584 114.933 113.531 114.933Z" fill="#2F2E41"/>
<path d="M126.784 52.3665C126.084 51.638 121.472 52.6391 120.448 53.7124L113.439 65.1529L125.031 67.3064L127.592 52.7703L126.784 52.3665Z" fill="#529ADD"/>
<path d="M123.745 81.4327C123.496 81.4329 123.248 81.3916 123.011 81.3107C122.338 81.08 121.513 80.8386 120.558 80.5936C116.378 79.5204 114.902 76.0841 116.172 70.3804L116.204 70.2356C117.396 64.8251 119.643 59.7018 122.816 55.1577L123.308 54.4526C123.901 53.602 124.732 52.9442 125.697 52.5611C126.661 52.178 127.717 52.0864 128.734 52.2978C130.615 52.6852 131.624 53.2465 131.735 53.9663C131.953 55.3786 127.752 72.4512 125.936 79.726C125.814 80.2139 125.532 80.6471 125.135 80.9564C124.738 81.2657 124.249 81.4334 123.745 81.4327Z" fill="#2F2E41"/>
<path d="M109.346 79.241C109.236 79.241 109.128 79.2241 109.024 79.1909L107.669 78.7582C107.529 78.7134 107.4 78.6399 107.29 78.5424C107.18 78.445 107.091 78.3256 107.03 78.1921C106.969 78.0586 106.936 77.9138 106.934 77.767C106.932 77.6201 106.961 77.4745 107.019 77.3394L114.208 60.4904C115.585 57.2762 117.993 54.6104 121.054 52.9122C121.098 52.8878 121.147 52.8728 121.198 52.8681C121.248 52.8633 121.299 52.869 121.347 52.8848C121.391 52.8989 121.432 52.922 121.467 52.9528C121.502 52.9836 121.53 53.0212 121.549 53.0634C122.394 54.9206 117.792 63.71 114.095 70.7723C112.201 74.3885 110.566 77.5117 110.38 78.4023C110.33 78.6395 110.2 78.8524 110.012 79.0051C109.824 79.1579 109.588 79.2412 109.346 79.241Z" fill="#2F2E41"/>
<path d="M131.587 83.0803C131.839 82.8921 132.047 82.651 132.197 82.3738C132.346 82.0966 132.432 81.7901 132.45 81.476C132.467 81.1618 132.416 80.8477 132.299 80.5556C132.181 80.2635 132.002 80.0006 131.772 79.7854L131.715 59.5947L127.092 60.3691L128.604 79.9825C128.268 80.3921 128.093 80.9106 128.114 81.4399C128.135 81.9693 128.35 82.4725 128.717 82.8544C129.085 83.2362 129.58 83.4701 130.109 83.5118C130.638 83.5534 131.164 83.3999 131.587 83.0803Z" fill="#FFB8B8"/>
<path d="M127.823 64.6039C127.594 64.6038 127.373 64.5168 127.206 64.3604C127.039 64.2041 126.938 63.9901 126.922 63.7618L126.385 55.6149C126.334 54.8311 126.597 54.0591 127.115 53.4683C127.633 52.8775 128.365 52.5162 129.15 52.4636C129.553 52.4371 129.958 52.493 130.338 52.6279C130.719 52.7628 131.068 52.9739 131.364 53.2482C131.66 53.5225 131.897 53.8543 132.06 54.2232C132.223 54.5921 132.309 54.9904 132.313 55.3937L132.386 63.6515C132.387 63.89 132.294 64.1195 132.127 64.2899C131.96 64.4603 131.732 64.5578 131.493 64.561L127.834 64.6039L127.823 64.6039Z" fill="#2F2E41"/>
<path d="M124.516 50.4001C127.237 50.4001 129.443 48.1971 129.443 45.4796C129.443 42.7621 127.237 40.5591 124.516 40.5591C121.794 40.5591 119.588 42.7621 119.588 45.4796C119.588 48.1971 121.794 50.4001 124.516 50.4001Z" fill="#FFB8B8"/>
<path d="M128.613 48.9226C128.98 47.7547 129.318 46.3777 128.59 45.3922C128.066 44.6821 127.125 44.4072 126.243 44.3679C125.36 44.3285 124.475 44.4779 123.595 44.408C122.714 44.3381 121.783 43.991 121.336 43.2304C120.756 42.2441 121.247 40.8856 122.18 40.2214C123.112 39.5572 124.344 39.4644 125.479 39.6192C126.916 39.7894 128.266 40.3925 129.35 41.348C130.405 42.3202 131.093 43.7216 131.062 45.1548C131.031 46.588 130.226 48.0152 128.944 48.6586" fill="#2F2E41"/>
<path d="M127.384 38.171C126.204 37.8081 125.66 36.2508 126.188 35.1365C126.715 34.0222 128.064 33.4387 129.289 33.5939C130.513 33.7491 131.592 34.5336 132.336 35.5168C133.081 36.5001 133.529 37.6723 133.904 38.8468C134.278 40.0214 134.589 41.2213 135.1 42.3433C135.911 44.0671 137.162 45.5474 138.728 46.6356C140.293 47.7237 142.118 48.3812 144.018 48.5422C144.847 48.6021 145.706 48.5592 146.461 48.2134C147.216 47.8677 147.849 47.1706 147.934 46.3456C148.364 49.2763 146.656 52.3909 143.952 53.6088C141.248 54.8267 137.78 54.0432 135.864 51.7818C133.992 49.5718 133.702 46.4517 133.747 43.5575C133.759 42.7638 133.789 41.9552 133.569 41.1923C133.349 40.4295 132.83 39.7041 132.073 39.4618C131.462 39.2663 130.801 39.4073 130.174 39.5459C129.548 39.6844 128.883 39.8178 128.277 39.6089C127.671 39.4 127.183 38.7116 127.427 38.1194" fill="#2F2E41"/>
<path d="M146.88 119H93.9128C93.8596 119 93.8085 118.979 93.7709 118.941C93.7333 118.904 93.7122 118.853 93.7122 118.8C93.7122 118.747 93.7333 118.696 93.7709 118.658C93.8085 118.62 93.8596 118.599 93.9128 118.599H146.88C146.933 118.599 146.984 118.62 147.022 118.658C147.059 118.696 147.081 118.747 147.081 118.8C147.081 118.853 147.059 118.904 147.022 118.941C146.984 118.979 146.933 119 146.88 119Z" fill="#CCCCCC"/>
</g>
<defs>
<clipPath id="clip0_46_3">
<rect width="148" height="119" fill="white"/>
</clipPath>
</defs>
</svg>
